<svg data-v-423bf9ae="" xmlns="http://www.w3.org/2000/svg" viewBox="0 0 587.9574628772111 163" class="iconAbove"><!----><!----><!----><g data-v-423bf9ae="" id="fc25c02f-4c4a-44dc-9b3f-bdabf0d2ab06" fill="#253D52" transform="matrix(4.255319321625053,0,0,4.255319321625053,-2.382986206418309,102.57446625100549)"><path d="M9.00 1.27L9.85 1.27L11.51 1.24L11.51 1.60L10.71 1.74L10.72 3.72L10.78 8.09L10.85 9.25L10.85 9.25Q10.85 9.90 11.00 10.07L11.00 10.07L11.81 10.22L11.81 10.57L10.23 10.53L8.79 10.57L8.79 10.22L9.59 10.07L9.67 8.09L9.59 1.76L6.49 10.57L5.55 10.57L2.44 1.76L2.41 4.87L2.41 8.48L2.41 8.48Q2.41 9.96 2.43 10.07L2.43 10.07L3.25 10.22L3.25 10.57L1.98 10.53L0.56 10.57L0.56 10.22L1.38 10.07L1.38 10.07Q1.45 9.88 1.45 8.48L1.45 8.48L1.45 8.48Q1.45 8.08 1.50 6.87L1.50 6.87L1.50 6.87Q1.55 5.67 1.55 4.87L1.55 4.87L1.57 2.81L1.54 2.28L1.54 2.28Q1.54 1.75 1.47 1.73L1.47 1.73L0.79 1.60L0.79 1.24L2.50 1.27L3.42 1.27L6.24 9.40L9.00 1.27ZM18.23 3.11L18.22 5.61L18.22 7.94L18.23 9.51L18.23 9.51Q18.23 10.06 18.28 10.07L18.28 10.07L19.06 10.22L19.08 10.57L18.36 10.53L17.63 10.53L17.11 10.56L17.12 8.98L17.12 8.98Q16.60 9.87 15.92 10.30L15.92 10.30L15.92 10.30Q15.25 10.74 14.50 10.74L14.50 10.74L14.50 10.74Q13.59 10.74 13.01 10.13L13.01 10.13L13.01 10.13Q12.43 9.52 12.43 8.54L12.43 8.54L12.43 5.95L12.36 3.97L11.46 3.82L11.46 3.47L11.46 3.47Q11.69 3.47 11.88 3.44L11.88 3.44L11.88 3.44Q12.07 3.41 12.38 3.34L12.38 3.34L12.38 3.34Q12.87 3.26 13.29 3.11L13.29 3.11L13.54 3.11L13.48 5.53L13.48 7.49L13.48 7.49Q13.48 8.09 13.56 8.53L13.56 8.53L13.56 8.53Q13.64 8.96 13.83 9.27L13.83 9.27L13.83 9.27Q14.20 9.88 15.00 9.88L15.00 9.88L15.00 9.88Q15.97 9.88 16.56 9.06L16.56 9.06L16.56 9.06Q17.12 8.21 17.12 6.97L17.12 6.97L17.12 5.95L17.06 3.97L16.16 3.82L16.16 3.47L16.16 3.47Q16.37 3.47 16.57 3.44L16.57 3.44L16.57 3.44Q16.76 3.41 17.06 3.34L17.06 3.34L17.06 3.34Q17.56 3.25 17.97 3.11L17.97 3.11L18.23 3.11ZM20.68 3.24L22.71 3.31L26.09 3.31L26.09 3.77L21.52 9.96L23.20 10.06L23.20 10.06Q23.94 10.06 24.58 9.93L24.58 9.93L24.58 9.93Q24.93 9.88 25.16 9.82L25.16 9.82L25.16 9.82Q25.40 9.76 25.50 9.72L25.50 9.72L25.97 8.81L26.32 8.91L25.97 10.57L25.69 10.57L23.04 10.53L20.08 10.53L20.08 10.09L24.64 3.77L23.38 3.78L23.38 3.78Q22.84 3.78 22.51 3.81L22.51 3.81L22.51 3.81Q22.14 3.87 21.96 3.90L21.96 3.90L21.18 4.04L20.79 5.04L20.42 4.94L20.64 3.69L20.68 3.24ZM28.15 0.98L28.15 0.98L28.15 0.98Q28.15 0.68 28.36 0.48L28.36 0.48L28.36 0.48Q28.56 0.27 28.89 0.24L28.89 0.24L28.89 0.24Q29.19 0.24 29.41 0.46L29.41 0.46L29.41 0.46Q29.62 0.67 29.62 0.97L29.62 0.97L29.62 0.97Q29.62 1.27 29.42 1.47L29.42 1.47L29.42 1.47Q29.23 1.67 28.89 1.70L28.89 1.70L28.89 1.70Q28.61 1.70 28.37 1.49L28.37 1.49L28.37 1.49Q28.15 1.25 28.15 0.98ZM29.42 5.03L29.42 7.82L29.47 10.07L30.28 10.22L30.28 10.57L28.89 10.53L27.50 10.57L27.50 10.22L28.33 10.07L28.37 7.83L28.37 6.33L28.30 3.97L27.39 3.82L27.39 3.47L27.39 3.47Q27.69 3.43 27.96 3.39L27.96 3.39L27.96 3.39Q28.24 3.35 28.29 3.34L28.29 3.34L29.18 3.11L29.44 3.11L29.42 5.03ZM36.08 8.52L36.45 8.81L36.45 8.81Q36.07 9.56 35.17 10.16L35.17 10.16L35.17 10.16Q34.71 10.45 34.26 10.59L34.26 10.59L34.26 10.59Q33.80 10.74 33.28 10.74L33.28 10.74L33.28 10.74Q31.72 10.74 30.84 9.78L30.84 9.78L30.84 9.78Q29.97 8.83 29.97 7.11L29.97 7.11L29.97 7.11Q29.97 5.46 31.00 4.28L31.00 4.28L31.00 4.28Q32.04 3.11 33.52 3.11L33.52 3.11L33.52 3.11Q34.80 3.11 35.51 3.81L35.51 3.81L35.51 3.81Q36.23 4.48 36.23 5.71L36.23 5.71L36.28 6.23L31.10 6.23L31.09 6.47L31.09 7.01L31.09 7.01Q31.09 8.30 31.75 9.09L31.75 9.09L31.75 9.09Q32.42 9.88 33.56 9.88L33.56 9.88L33.56 9.88Q34.02 9.88 34.40 9.77L34.40 9.77L34.40 9.77Q34.78 9.66 35.13 9.43L35.13 9.43L35.13 9.43Q35.47 9.20 35.71 8.96L35.71 8.96L35.71 8.96Q35.95 8.72 36.08 8.52L36.08 8.52ZM31.17 5.64L31.17 5.64L34.45 5.58L35.10 5.53L35.10 5.53Q35.10 4.62 34.70 4.16L34.70 4.16L34.70 4.16Q34.29 3.69 33.50 3.69L33.50 3.69L33.50 3.69Q32.46 3.69 31.75 4.48L31.75 4.48L31.75 4.48Q31.38 4.90 31.17 5.64ZM43.93 5.33L43.93 7.82L44.00 10.07L44.84 10.22L44.84 10.57L43.39 10.53L42.85 10.57L42.85 10.22L42.87 10.07L42.87 6.04L42.87 6.04Q42.87 4.98 42.49 4.47L42.49 4.47L42.49 4.47Q42.11 3.97 41.24 3.97L41.24 3.97L41.24 3.97Q40.32 3.97 39.79 4.71L39.79 4.71L39.79 4.71Q39.26 5.46 39.26 6.68L39.26 6.68L39.26 7.82L39.31 10.07L40.12 10.22L40.12 10.57L38.74 10.53L37.34 10.57L37.34 10.22L38.16 10.07L38.21 7.83L38.21 3.31L38.14 0.95L37.23 0.81L37.23 0.45L38.13 0.32L38.13 0.32Q38.45 0.26 39.02 0.10L39.02 0.10L39.28 0.10L39.26 2.01L39.26 4.42L39.26 4.42Q39.72 3.85 40.39 3.48L40.39 3.48L40.39 3.48Q41.06 3.11 41.77 3.11L41.77 3.11L41.77 3.11Q42.73 3.11 43.33 3.72L43.33 3.72L43.33 3.72Q43.93 4.33 43.93 5.33L43.93 5.33ZM57.45 5.61L57.45 5.61L57.45 5.61Q57.45 3.91 56.50 2.88L56.50 2.88L56.50 2.88Q55.55 1.85 53.89 1.85L53.89 1.85L53.89 1.85Q53.63 1.85 53.46 1.85L53.46 1.85L53.46 1.85Q53.28 1.85 52.85 1.89L52.85 1.89L52.85 1.89Q52.60 1.89 52.42 1.93L52.42 1.93L52.42 1.93Q52.23 1.97 51.82 2.07L51.82 2.07L51.82 9.67L51.82 9.67Q52.34 9.81 52.81 9.88L52.81 9.88L52.81 9.88Q53.08 9.91 53.31 9.94L53.31 9.94L53.31 9.94Q53.55 9.96 53.81 9.96L53.81 9.96L53.81 9.96Q55.54 9.96 56.50 8.81L56.50 8.81L56.50 8.81Q56.97 8.23 57.21 7.43L57.21 7.43L57.21 7.43Q57.45 6.62 57.45 5.61ZM50.57 8.09L50.57 3.72L50.53 2.57L50.53 2.57Q50.53 2.28 50.51 2.06L50.51 2.06L50.51 2.06Q50.48 1.83 50.45 1.74L50.45 1.74L49.65 1.60L49.65 1.24L51.14 1.27L54.62 1.20L54.62 1.20Q56.60 1.20 57.66 2.38L57.66 2.38L57.66 2.38Q58.73 3.55 58.73 5.61L58.73 5.61L58.73 5.61Q58.73 7.69 57.31 9.15L57.31 9.15L57.31 9.15Q55.89 10.62 53.90 10.62L53.90 10.62L51.14 10.53L49.65 10.57L49.65 10.22L50.45 10.07L50.45 10.07Q50.46 10.03 50.50 9.81L50.50 9.81L50.50 9.81Q50.53 9.59 50.53 9.25L50.53 9.25L50.57 8.09ZM65.94 8.52L66.31 8.81L66.31 8.81Q65.93 9.56 65.03 10.16L65.03 10.16L65.03 10.16Q64.57 10.45 64.11 10.59L64.11 10.59L64.11 10.59Q63.66 10.74 63.14 10.74L63.14 10.74L63.14 10.74Q61.58 10.74 60.70 9.78L60.70 9.78L60.70 9.78Q59.82 8.83 59.82 7.11L59.82 7.11L59.82 7.11Q59.82 5.46 60.86 4.28L60.86 4.28L60.86 4.28Q61.90 3.11 63.38 3.11L63.38 3.11L63.38 3.11Q64.66 3.11 65.37 3.81L65.37 3.81L65.37 3.81Q66.09 4.48 66.09 5.71L66.09 5.71L66.14 6.23L60.96 6.23L60.94 6.47L60.94 7.01L60.94 7.01Q60.94 8.30 61.61 9.09L61.61 9.09L61.61 9.09Q62.28 9.88 63.42 9.88L63.42 9.88L63.42 9.88Q63.88 9.88 64.26 9.77L64.26 9.77L64.26 9.77Q64.64 9.66 64.98 9.43L64.98 9.43L64.98 9.43Q65.33 9.20 65.57 8.96L65.57 8.96L65.57 8.96Q65.81 8.72 65.94 8.52L65.94 8.52ZM61.03 5.64L61.03 5.64L64.30 5.58L64.96 5.53L64.96 5.53Q64.96 4.62 64.55 4.16L64.55 4.16L64.55 4.16Q64.15 3.69 63.36 3.69L63.36 3.69L63.36 3.69Q62.31 3.69 61.61 4.48L61.61 4.48L61.61 4.48Q61.24 4.90 61.03 5.64ZM72.57 8.34L72.57 8.34L72.57 8.34Q72.57 9.34 71.69 10.04L71.69 10.04L71.69 10.04Q70.80 10.74 69.52 10.74L69.52 10.74L69.52 10.74Q68.77 10.74 68.03 10.50L68.03 10.50L68.03 10.50Q67.69 10.37 67.37 10.21L67.37 10.21L67.37 10.21Q67.06 10.04 66.74 9.83L66.74 9.83L67.27 9.13L67.74 8.42L68.03 8.58L67.75 9.35L67.75 9.35Q68.00 9.57 68.56 9.84L68.56 9.84L68.56 9.84Q69.09 10.07 69.82 10.07L69.82 10.07L69.82 10.07Q70.54 10.07 71.07 9.69L71.07 9.69L71.07 9.69Q71.61 9.31 71.61 8.71L71.61 8.71L71.61 8.71Q71.61 8.14 71.13 7.82L71.13 7.82L71.13 7.82Q70.62 7.49 69.67 7.23L69.67 7.23L69.67 7.23Q68.52 6.90 67.84 6.51L67.84 6.51L67.84 6.51Q67.15 6.11 67.15 5.17L67.15 5.17L67.15 5.17Q67.15 4.22 68.00 3.67L68.00 3.67L68.00 3.67Q68.40 3.40 68.92 3.25L68.92 3.25L68.92 3.25Q69.43 3.11 70.05 3.11L70.05 3.11L70.05 3.11Q70.64 3.11 71.30 3.23L71.30 3.23L71.30 3.23Q71.64 3.30 71.84 3.35L71.84 3.35L71.84 3.35Q72.04 3.41 72.22 3.48L72.22 3.48L71.68 4.91L71.39 4.81L71.42 4.17L71.42 4.17Q71.10 4.02 70.66 3.90L70.66 3.90L70.66 3.90Q70.37 3.82 70.17 3.79L70.17 3.79L70.17 3.79Q69.98 3.77 69.75 3.77L69.75 3.77L69.75 3.77Q68.98 3.77 68.55 4.06L68.55 4.06L68.55 4.06Q68.13 4.36 68.13 4.83L68.13 4.83L68.13 4.83Q68.13 5.31 68.57 5.65L68.57 5.65L68.57 5.65Q69.03 5.96 70.23 6.27L70.23 6.27L70.23 6.27Q71.43 6.59 71.99 7.08L71.99 7.08L71.99 7.08Q72.57 7.53 72.57 8.34ZM73.51 0.98L73.51 0.98L73.51 0.98Q73.51 0.68 73.72 0.48L73.72 0.48L73.72 0.48Q73.92 0.27 74.25 0.24L74.25 0.24L74.25 0.24Q74.55 0.24 74.77 0.46L74.77 0.46L74.77 0.46Q74.98 0.67 74.98 0.97L74.98 0.97L74.98 0.97Q74.98 1.27 74.78 1.47L74.78 1.47L74.78 1.47Q74.59 1.67 74.25 1.70L74.25 1.70L74.25 1.70Q73.97 1.70 73.73 1.49L73.73 1.49L73.73 1.49Q73.51 1.25 73.51 0.98ZM74.78 5.03L74.78 7.82L74.83 10.07L75.64 10.22L75.64 10.57L74.25 10.53L72.86 10.57L72.86 10.22L73.69 10.07L73.73 7.83L73.73 6.33L73.66 3.97L72.75 3.82L72.75 3.47L72.75 3.47Q73.05 3.43 73.32 3.39L73.32 3.39L73.32 3.39Q73.60 3.35 73.65 3.34L73.65 3.34L74.54 3.11L74.80 3.11L74.78 5.03ZM79.03 3.68L79.03 3.68L79.03 3.68Q78.15 3.68 77.61 4.28L77.61 4.28L77.61 4.28Q77.07 4.87 77.07 5.86L77.07 5.86L77.07 5.86Q77.07 6.78 77.61 7.37L77.61 7.37L77.61 7.37Q78.16 7.96 79.03 7.96L79.03 7.96L79.03 7.96Q79.85 7.96 80.44 7.36L80.44 7.36L80.44 7.36Q81.00 6.74 81.00 5.83L81.00 5.83L81.00 5.83Q81.00 5.31 80.88 4.95L80.88 4.95L80.88 4.95Q80.76 4.59 80.46 4.27L80.46 4.27L80.46 4.27Q79.95 3.68 79.03 3.68ZM75.93 5.81L75.93 5.81L75.93 5.81Q75.93 4.68 76.85 3.90L76.85 3.90L76.85 3.90Q77.77 3.11 79.03 3.11L79.03 3.11L79.03 3.11Q79.63 3.11 80.08 3.25L80.08 3.25L81.08 3.42L82.74 3.47L82.75 3.68L82.75 3.80L82.55 3.88L82.55 3.88Q82.37 3.97 81.31 3.97L81.31 3.97L81.31 3.97Q82.14 4.72 82.14 5.80L82.14 5.80L82.14 5.80Q82.14 6.89 81.22 7.71L81.22 7.71L81.22 7.71Q80.29 8.53 79.03 8.53L79.03 8.53L79.03 8.53Q78.19 8.53 77.69 8.33L77.69 8.33L77.69 8.33Q77.67 8.45 77.54 8.79L77.54 8.79L77.54 8.79Q77.15 9.90 77.11 9.91L77.11 9.91L77.54 9.78L77.54 9.78Q77.78 9.71 78.22 9.66L78.22 9.66L78.22 9.66Q78.65 9.60 79.26 9.60L79.26 9.60L79.26 9.60Q80.57 9.60 81.50 10.15L81.50 10.15L81.50 10.15Q82.44 10.69 82.44 11.74L82.44 11.74L82.44 11.74Q82.44 12.77 81.33 13.49L81.33 13.49L81.33 13.49Q80.21 14.20 78.75 14.20L78.75 14.20L78.75 14.20Q77.46 14.20 76.61 13.64L76.61 13.64L76.61 13.64Q75.77 13.08 75.77 12.33L75.77 12.33L75.77 12.33Q75.77 11.90 75.96 11.61L75.96 11.61L75.96 11.61Q76.16 11.32 76.37 11.13L76.37 11.13L76.76 11.39L76.76 11.39Q76.66 11.51 76.62 11.69L76.62 11.69L76.59 12.07L76.59 12.07Q76.59 12.49 77.30 12.99L77.30 12.99L77.30 12.99Q77.66 13.23 78.13 13.34L78.13 13.34L78.13 13.34Q78.59 13.46 79.21 13.46L79.21 13.46L79.21 13.46Q80.07 13.46 80.68 13.10L80.68 13.10L80.68 13.10Q81.30 12.74 81.30 11.94L81.30 11.94L81.30 11.94Q81.30 11.16 80.26 10.71L80.26 10.71L80.26 10.71Q79.83 10.52 79.11 10.52L79.11 10.52L79.11 10.52Q78.26 10.52 76.95 10.83L76.95 10.83L76.35 10.18L76.65 9.51L76.65 9.51Q76.76 9.27 76.89 8.89L76.89 8.89L76.89 8.89Q77.02 8.51 77.14 8.09L77.14 8.09L77.14 8.09Q76.90 7.97 76.76 7.83L76.76 7.83L76.76 7.83Q75.93 7.11 75.93 5.81ZM90.10 5.33L90.10 7.82L90.17 10.07L91.01 10.22L91.01 10.57L89.56 10.53L89.02 10.57L89.02 10.22L89.04 10.07L89.04 6.04L89.04 6.04Q89.04 4.98 88.66 4.47L88.66 4.47L88.66 4.47Q88.28 3.97 87.41 3.97L87.41 3.97L87.41 3.97Q86.49 3.97 85.96 4.71L85.96 4.71L85.96 4.71Q85.43 5.46 85.43 6.68L85.43 6.68L85.43 7.82L85.48 10.07L86.29 10.22L86.29 10.57L84.91 10.53L83.51 10.57L83.51 10.22L84.33 10.07L84.38 7.83L84.38 6.29L84.31 3.93L83.40 3.78L83.40 3.43L83.40 3.43Q83.68 3.43 83.82 3.41L83.82 3.41L83.82 3.41Q83.96 3.40 84.31 3.32L84.31 3.32L84.31 3.32Q84.76 3.25 85.22 3.11L85.22 3.11L85.51 3.11L85.39 4.59L85.39 4.59Q85.98 3.90 86.60 3.50L86.60 3.50L86.60 3.50Q87.23 3.11 87.94 3.11L87.94 3.11L87.94 3.11Q88.90 3.11 89.50 3.72L89.50 3.72L89.50 3.72Q90.10 4.33 90.10 5.33L90.10 5.33ZM103.10 7.90L103.10 7.90L103.10 7.90Q103.10 9.13 102.03 9.94L102.03 9.94L102.03 9.94Q100.97 10.76 99.31 10.76L99.31 10.76L99.31 10.76Q98.33 10.76 97.52 10.56L97.52 10.56L97.52 10.56Q96.70 10.35 95.93 9.88L95.93 9.88L95.93 9.88Q96.14 9.48 96.34 8.98L96.34 8.98L96.67 8.07L97.02 8.17L96.94 9.13L96.94 9.13Q97.07 9.25 97.31 9.37L97.31 9.37L97.31 9.37Q97.55 9.50 97.99 9.67L97.99 9.67L97.99 9.67Q98.82 10.02 99.69 10.02L99.69 10.02L99.69 10.02Q100.70 10.02 101.29 9.51L101.29 9.51L101.29 9.51Q101.88 9.01 101.88 8.09L101.88 8.09L101.88 8.09Q101.88 7.32 101.18 6.91L101.18 6.91L101.18 6.91Q100.88 6.73 100.44 6.55L100.44 6.55L100.44 6.55Q99.99 6.37 99.49 6.23L99.49 6.23L99.49 6.23Q97.88 5.81 97.00 5.25L97.00 5.25L97.00 5.25Q96.20 4.69 96.20 3.77L96.20 3.77L96.20 3.77Q96.20 2.55 97.22 1.81L97.22 1.81L97.22 1.81Q98.24 1.06 99.82 1.06L99.82 1.06L99.82 1.06Q100.70 1.06 101.42 1.22L101.42 1.22L101.42 1.22Q102.13 1.38 102.79 1.66L102.79 1.66L102.42 2.53L102.42 2.53Q102.24 3.00 102.15 3.38L102.15 3.38L101.75 3.30L101.82 2.50L101.82 2.50Q101.75 2.38 101.04 2.09L101.04 2.09L101.04 2.09Q100.34 1.79 99.53 1.79L99.53 1.79L99.53 1.79Q98.55 1.79 97.92 2.20L97.92 2.20L97.92 2.20Q97.32 2.63 97.32 3.35L97.32 3.35L97.32 3.35Q97.32 4.12 98.13 4.50L98.13 4.50L98.13 4.50Q98.93 4.89 100.04 5.18L100.04 5.18L100.04 5.18Q101.72 5.64 102.41 6.31L102.41 6.31L102.41 6.31Q103.10 6.99 103.10 7.90ZM108.46 3.77L107.82 3.62L107.82 3.28L108.94 3.31L110.05 3.28L110.05 3.62L109.63 3.77L109.63 3.77Q108.81 5.54 108.20 7.26L108.20 7.26L107.00 10.74L107.00 10.74Q106.40 12.37 105.57 13.29L105.57 13.29L105.57 13.29Q104.73 14.20 103.46 14.20L103.46 14.20L103.46 14.20Q103.33 14.20 103.19 14.20L103.19 14.20L103.19 14.20Q103.03 14.17 102.94 14.15L102.94 14.15L102.94 14.15Q102.86 14.13 102.78 14.11L102.78 14.11L102.78 14.11Q102.69 14.08 102.55 14.01L102.55 14.01L102.98 12.46L103.33 12.50L103.33 13.11L103.60 13.19L103.60 13.19Q103.78 13.25 103.99 13.25L103.99 13.25L103.99 13.25Q104.74 13.25 105.36 12.52L105.36 12.52L105.36 12.52Q105.98 11.78 106.27 10.90L106.27 10.90L106.41 10.57L106.07 10.57L104.80 7.14L104.80 7.14Q104.17 5.37 103.49 3.78L103.49 3.78L102.86 3.62L102.86 3.28L104.16 3.31L105.46 3.28L105.46 3.62L104.78 3.75L106.73 9.88L106.73 9.88Q106.96 9.17 107.22 8.33L107.22 8.33L107.22 8.33Q107.48 7.49 107.67 6.82L107.67 6.82L107.67 6.82Q108.12 5.29 108.46 3.77L108.46 3.77ZM115.97 8.34L115.97 8.34L115.97 8.34Q115.97 9.34 115.08 10.04L115.08 10.04L115.08 10.04Q114.19 10.74 112.92 10.74L112.92 10.74L112.92 10.74Q112.17 10.74 111.43 10.50L111.43 10.50L111.43 10.50Q111.08 10.37 110.77 10.21L110.77 10.21L110.77 10.21Q110.45 10.04 110.13 9.83L110.13 9.83L110.67 9.13L111.13 8.42L111.43 8.58L111.14 9.35L111.14 9.35Q111.39 9.57 111.95 9.84L111.95 9.84L111.95 9.84Q112.49 10.07 113.22 10.07L113.22 10.07L113.22 10.07Q113.93 10.07 114.47 9.69L114.47 9.69L114.47 9.69Q115.00 9.31 115.00 8.71L115.00 8.71L115.00 8.71Q115.00 8.14 114.53 7.82L114.53 7.82L114.53 7.82Q114.01 7.49 113.06 7.23L113.06 7.23L113.06 7.23Q111.92 6.90 111.23 6.51L111.23 6.51L111.23 6.51Q110.55 6.11 110.55 5.17L110.55 5.17L110.55 5.17Q110.55 4.22 111.39 3.67L111.39 3.67L111.39 3.67Q111.80 3.40 112.31 3.25L112.31 3.25L112.31 3.25Q112.82 3.11 113.44 3.11L113.44 3.11L113.44 3.11Q114.04 3.11 114.69 3.23L114.69 3.23L114.69 3.23Q115.04 3.30 115.23 3.35L115.23 3.35L115.23 3.35Q115.43 3.41 115.61 3.48L115.61 3.48L115.07 4.91L114.79 4.81L114.81 4.17L114.81 4.17Q114.49 4.02 114.05 3.90L114.05 3.90L114.05 3.90Q113.76 3.82 113.57 3.79L113.57 3.79L113.57 3.79Q113.37 3.77 113.14 3.77L113.14 3.77L113.14 3.77Q112.37 3.77 111.95 4.06L111.95 4.06L111.95 4.06Q111.52 4.36 111.52 4.83L111.52 4.83L111.52 4.83Q111.52 5.31 111.96 5.65L111.96 5.65L111.96 5.65Q112.43 5.96 113.63 6.27L113.63 6.27L113.63 6.27Q114.82 6.59 115.38 7.08L115.38 7.08L115.38 7.08Q115.97 7.53 115.97 8.34ZM118.04 3.88L118.04 7.92L118.04 7.92Q118.04 8.96 118.24 9.42L118.24 9.42L118.24 9.42Q118.43 9.88 118.91 9.88L118.91 9.88L118.91 9.88Q119.24 9.88 119.51 9.71L119.51 9.71L119.51 9.71Q119.77 9.54 119.96 9.37L119.96 9.37L120.21 9.62L120.21 9.62Q120.09 9.82 119.88 10.04L119.88 10.04L119.88 10.04Q119.74 10.19 119.57 10.35L119.57 10.35L119.57 10.35Q119.15 10.74 118.46 10.74L118.46 10.74L118.46 10.74Q117.79 10.74 117.39 10.28L117.39 10.28L117.39 10.28Q116.99 9.83 116.99 9.02L116.99 9.02L116.99 3.88L116.16 3.94L116.16 3.54L116.99 3.30L116.92 1.60L118.10 1.27L118.04 3.31L119.83 3.29L119.57 3.91L118.04 3.88ZM126.55 8.52L126.92 8.81L126.92 8.81Q126.54 9.56 125.64 10.16L125.64 10.16L125.64 10.16Q125.18 10.45 124.73 10.59L124.73 10.59L124.73 10.59Q124.27 10.74 123.75 10.74L123.75 10.74L123.75 10.74Q122.19 10.74 121.31 9.78L121.31 9.78L121.31 9.78Q120.44 8.83 120.44 7.11L120.44 7.11L120.44 7.11Q120.44 5.46 121.47 4.28L121.47 4.28L121.47 4.28Q122.51 3.11 123.99 3.11L123.99 3.11L123.99 3.11Q125.27 3.11 125.98 3.81L125.98 3.81L125.98 3.81Q126.70 4.48 126.70 5.71L126.70 5.71L126.75 6.23L121.57 6.23L121.56 6.47L121.56 7.01L121.56 7.01Q121.56 8.30 122.22 9.09L122.22 9.09L122.22 9.09Q122.89 9.88 124.03 9.88L124.03 9.88L124.03 9.88Q124.49 9.88 124.87 9.77L124.87 9.77L124.87 9.77Q125.25 9.66 125.59 9.43L125.59 9.43L125.59 9.43Q125.94 9.20 126.18 8.96L126.18 8.96L126.18 8.96Q126.42 8.72 126.55 8.52L126.55 8.52ZM121.64 5.64L121.64 5.64L124.92 5.58L125.57 5.53L125.57 5.53Q125.57 4.62 125.17 4.16L125.17 4.16L125.17 4.16Q124.76 3.69 123.97 3.69L123.97 3.69L123.97 3.69Q122.93 3.69 122.22 4.48L122.22 4.48L122.22 4.48Q121.85 4.90 121.64 5.64ZM137.80 5.33L137.80 7.82L137.86 10.07L138.73 10.22L138.73 10.57L137.27 10.53L136.70 10.57L136.70 10.22L136.75 10.07L136.75 6.11L136.75 6.11Q136.75 5.06 136.41 4.52L136.41 4.52L136.41 4.52Q136.07 3.97 135.32 3.97L135.32 3.97L135.32 3.97Q134.44 3.97 133.91 4.72L133.91 4.72L133.91 4.72Q133.66 5.10 133.52 5.58L133.52 5.58L133.52 5.58Q133.39 6.06 133.39 6.68L133.39 6.68L133.39 7.82L133.46 10.07L134.28 10.22L134.28 10.57L132.86 10.53L131.42 10.57L131.42 10.22L132.30 10.07L132.34 7.83L132.34 6.11L132.34 6.11Q132.34 5.09 132.00 4.53L132.00 4.53L132.00 4.53Q131.66 3.97 130.89 3.97L130.89 3.97L130.89 3.97Q129.96 3.97 129.46 4.80L129.46 4.80L129.46 4.80Q129.23 5.21 129.10 5.71L129.10 5.71L129.10 5.71Q128.97 6.22 128.97 6.79L128.97 6.79L128.97 7.82L129.04 10.07L129.86 10.22L129.86 10.57L128.44 10.53L127.06 10.57L127.06 10.22L127.88 10.07L127.92 7.83L127.92 6.29L127.86 3.93L126.95 3.78L126.95 3.43L126.95 3.43Q127.23 3.43 127.37 3.41L127.37 3.41L127.37 3.41Q127.51 3.40 127.89 3.32L127.89 3.32L127.89 3.32Q128.28 3.25 128.76 3.11L128.76 3.11L129.06 3.11L128.94 4.63L128.94 4.63Q129.47 3.96 130.13 3.53L130.13 3.53L130.13 3.53Q130.80 3.11 131.33 3.11L131.33 3.11L131.33 3.11Q132.20 3.11 132.62 3.51L132.62 3.51L132.62 3.51Q133.05 3.91 133.26 4.75L133.26 4.75L133.26 4.75Q133.60 4.27 134.27 3.69L134.27 3.69L134.27 3.69Q134.94 3.11 135.84 3.11L135.84 3.11L135.84 3.11Q136.72 3.11 137.26 3.72L137.26 3.72L137.26 3.72Q137.80 4.34 137.80 5.33L137.80 5.33Z"></path></g><defs data-v-423bf9ae=""><linearGradient data-v-423bf9ae="" gradientTransform="rotate(25)" id="559e930b-0742-4752-8e56-ece010870fbe" x1="0%" y1="0%" x2="100%" y2="0%"><stop data-v-423bf9ae="" offset="0%" style="stop-color: rgb(0, 125, 232); stop-opacity: 1;"></stop><stop data-v-423bf9ae="" offset="100%" style="stop-color: rgb(161, 195, 219); stop-opacity: 1;"></stop></linearGradient></defs><g data-v-423bf9ae="" id="2d39f2c9-90a2-4412-95e5-5dbae1b89bc3" transform="matrix(4.424120753030021,0,0,4.424120753030021,240.9139111030283,-2.245792638744689)" stroke="none" fill="url(#559e930b-0742-4752-8e56-ece010870fbe)"><path d="M13.635 6.567a7.5 7.5 0 1 1-3.576 10.777h9.653c.08 0 .111-.058.07-.13L13.635 6.567zM9.068.705l8.915 15.448c.038.065.01.117-.062.117H.08c-.072 0-.101-.05-.063-.117L8.933.705c.037-.065.097-.066.135 0z"></path></g><!----></svg>