<?xml version="1.0" encoding="UTF-8" standalone="no"?>
<!-- Created with Inkscape (http://www.inkscape.org/) -->

<svg
   width="58.208336mm"
   height="5.9400558mm"
   viewBox="0 0 58.208336 5.9400558"
   version="1.1"
   id="svg214"
   inkscape:version="1.1.1 (3bf5ae0d25, 2021-09-20)"
   sodipodi:docname="logo-isolated-layout.svg"
   xmlns:inkscape="http://www.inkscape.org/namespaces/inkscape"
   xmlns:sodipodi="http://sodipodi.sourceforge.net/DTD/sodipodi-0.dtd"
   xmlns:xlink="http://www.w3.org/1999/xlink"
   xmlns="http://www.w3.org/2000/svg"
   xmlns:svg="http://www.w3.org/2000/svg">
  <sodipodi:namedview
     id="namedview216"
     pagecolor="#ffffff"
     bordercolor="#666666"
     borderopacity="1.0"
     inkscape:pageshadow="2"
     inkscape:pageopacity="0.0"
     inkscape:pagecheckerboard="0"
     inkscape:document-units="mm"
     showgrid="false"
     fit-margin-top="0"
     fit-margin-left="0"
     fit-margin-right="0"
     fit-margin-bottom="0"
     inkscape:zoom="0.77771465"
     inkscape:cx="351.6714"
     inkscape:cy="531.68601"
     inkscape:window-width="2560"
     inkscape:window-height="1361"
     inkscape:window-x="-9"
     inkscape:window-y="-9"
     inkscape:window-maximized="1"
     inkscape:current-layer="layer1" />
  <defs
     id="defs211">
    <linearGradient
       data-v-fde0c5aa=""
       gradientTransform="rotate(25)"
       id="1f441ed1-36b0-4c39-9c19-038934a5b8e5"
       x1="0"
       y1="0"
       x2="1"
       y2="0">
      <stop
         data-v-fde0c5aa=""
         offset="0%"
         stop-color="#007DE8"
         stop-opacity="1"
         id="stop222" />
      <stop
         data-v-fde0c5aa=""
         offset="100%"
         stop-color="#A1C3DB"
         stop-opacity="1"
         id="stop224" />
    </linearGradient>
    <linearGradient
       inkscape:collect="always"
       xlink:href="#1f441ed1-36b0-4c39-9c19-038934a5b8e5"
       id="linearGradient244"
       gradientTransform="scale(3.1303819,0.31944984)"
       x1="0.17889191"
       y1="0.3130382"
       x2="44.317276"
       y2="0.3130382"
       gradientUnits="userSpaceOnUse" />
    <linearGradient
       inkscape:collect="always"
       xlink:href="#1f441ed1-36b0-4c39-9c19-038934a5b8e5"
       id="linearGradient246"
       gradientTransform="scale(3.1303819,0.31944984)"
       x1="0.17889191"
       y1="0.3130382"
       x2="44.317276"
       y2="0.3130382"
       gradientUnits="userSpaceOnUse" />
  </defs>
  <g
     inkscape:label="Layer 1"
     inkscape:groupmode="layer"
     id="layer1"
     transform="translate(-12.060781,-7.9165697)">
    <g
       id="g242"
       transform="matrix(0.26458333,0,0,0.26458333,1.4774479,-28.800901)">
      <rect
         data-v-fde0c5aa=""
         fill="#e7f3fc"
         x="0"
         y="0"
         class="logo-background-square"
         id="rect220"
         width="0"
         height="0" />
      <g
         data-v-fde0c5aa=""
         id="f4599694-e272-4a62-9660-c698e1cf5d22"
         fill="url(#1f441ed1-36b0-4c39-9c19-038934a5b8e5)"
         transform="matrix(1.5922415,0,0,1.5922415,39.108345,138.61547)"
         style="fill:url(#linearGradient246)">
        <path
           d="M 9,1.27 H 9.85 L 11.51,1.24 V 1.6 l -0.8,0.14 0.01,1.98 0.06,4.37 0.07,1.16 v 0 q 0,0.65 0.15,0.82 v 0 l 0.81,0.15 v 0.35 L 10.23,10.53 8.79,10.57 V 10.22 L 9.59,10.07 9.67,8.09 9.59,1.76 6.49,10.57 H 5.55 L 2.44,1.76 2.41,4.87 v 3.61 0 q 0,1.48 0.02,1.59 v 0 l 0.82,0.15 v 0.35 L 1.98,10.53 0.56,10.57 v -0.35 l 0.82,-0.15 v 0 Q 1.45,9.88 1.45,8.48 v 0 0 q 0,-0.4 0.05,-1.61 v 0 0 q 0.05,-1.2 0.05,-2 v 0 L 1.57,2.81 1.54,2.28 v 0 q 0,-0.53 -0.07,-0.55 v 0 L 0.79,1.6 V 1.24 L 2.5,1.27 H 3.42 L 6.24,9.4 Z m 9.23,1.84 -0.01,2.5 v 2.33 l 0.01,1.57 v 0 q 0,0.55 0.05,0.56 v 0 l 0.78,0.15 0.02,0.35 -0.72,-0.04 h -0.73 l -0.52,0.03 0.01,-1.58 v 0 q -0.52,0.89 -1.2,1.32 v 0 0 q -0.67,0.44 -1.42,0.44 v 0 0 q -0.91,0 -1.49,-0.61 v 0 0 Q 12.43,9.52 12.43,8.54 v 0 -2.59 L 12.36,3.97 11.46,3.82 v -0.35 0 q 0.23,0 0.42,-0.03 v 0 0 q 0.19,-0.03 0.5,-0.1 v 0 0 q 0.49,-0.08 0.91,-0.23 v 0 h 0.25 l -0.06,2.42 v 1.96 0 q 0,0.6 0.08,1.04 v 0 0 q 0.08,0.43 0.27,0.74 v 0 0 Q 14.2,9.88 15,9.88 v 0 0 q 0.97,0 1.56,-0.82 v 0 0 q 0.56,-0.85 0.56,-2.09 v 0 -1.02 L 17.06,3.97 16.16,3.82 v -0.35 0 q 0.21,0 0.41,-0.03 v 0 0 q 0.19,-0.03 0.49,-0.1 v 0 0 q 0.5,-0.09 0.91,-0.23 v 0 z m 2.45,0.13 2.03,0.07 h 3.38 v 0.46 l -4.57,6.19 1.68,0.1 v 0 q 0.74,0 1.38,-0.13 v 0 0 q 0.35,-0.05 0.58,-0.11 v 0 0 Q 25.4,9.76 25.5,9.72 v 0 l 0.47,-0.91 0.35,0.1 -0.35,1.66 h -0.28 l -2.65,-0.04 h -2.96 v -0.44 l 4.56,-6.32 -1.26,0.01 v 0 q -0.54,0 -0.87,0.03 v 0 0 Q 22.14,3.87 21.96,3.9 v 0 l -0.78,0.14 -0.39,1 -0.37,-0.1 0.22,-1.25 z m 7.47,-2.26 v 0 0 q 0,-0.3 0.21,-0.5 v 0 0 q 0.2,-0.21 0.53,-0.24 v 0 0 q 0.3,0 0.52,0.22 v 0 0 q 0.21,0.21 0.21,0.51 v 0 0 q 0,0.3 -0.2,0.5 v 0 0 q -0.19,0.2 -0.53,0.23 v 0 0 q -0.28,0 -0.52,-0.21 v 0 0 Q 28.15,1.25 28.15,0.98 Z m 1.27,4.05 v 2.79 l 0.05,2.25 0.81,0.15 v 0.35 l -1.39,-0.04 -1.39,0.04 v -0.35 l 0.83,-0.15 0.04,-2.24 V 6.33 L 28.3,3.97 27.39,3.82 v -0.35 0 q 0.3,-0.04 0.57,-0.08 v 0 0 q 0.28,-0.04 0.33,-0.05 v 0 l 0.89,-0.23 h 0.26 z m 6.66,3.49 0.37,0.29 v 0 q -0.38,0.75 -1.28,1.35 v 0 0 q -0.46,0.29 -0.91,0.43 v 0 0 q -0.46,0.15 -0.98,0.15 v 0 0 q -1.56,0 -2.44,-0.96 v 0 0 Q 29.97,8.83 29.97,7.11 v 0 0 q 0,-1.65 1.03,-2.83 v 0 0 q 1.04,-1.17 2.52,-1.17 v 0 0 q 1.28,0 1.99,0.7 v 0 0 q 0.72,0.67 0.72,1.9 v 0 l 0.05,0.52 H 31.1 l -0.01,0.24 v 0.54 0 q 0,1.29 0.66,2.08 v 0 0 q 0.67,0.79 1.81,0.79 v 0 0 q 0.46,0 0.84,-0.11 v 0 0 q 0.38,-0.11 0.73,-0.34 v 0 0 Q 35.47,9.2 35.71,8.96 v 0 0 Q 35.95,8.72 36.08,8.52 Z M 31.17,5.64 v 0 L 34.45,5.58 35.1,5.53 v 0 q 0,-0.91 -0.4,-1.37 v 0 0 Q 34.29,3.69 33.5,3.69 v 0 0 q -1.04,0 -1.75,0.79 v 0 0 Q 31.38,4.9 31.17,5.64 Z M 43.93,5.33 v 2.49 l 0.07,2.25 0.84,0.15 v 0.35 l -1.45,-0.04 -0.54,0.04 v -0.35 l 0.02,-0.15 v -4.03 0 q 0,-1.06 -0.38,-1.57 v 0 0 q -0.38,-0.5 -1.25,-0.5 v 0 0 q -0.92,0 -1.45,0.74 v 0 0 q -0.53,0.75 -0.53,1.97 v 0 1.14 l 0.05,2.25 0.81,0.15 v 0.35 l -1.38,-0.04 -1.4,0.04 v -0.35 l 0.82,-0.15 0.05,-2.24 V 3.31 L 38.14,0.95 37.23,0.81 V 0.45 l 0.9,-0.13 v 0 Q 38.45,0.26 39.02,0.1 v 0 h 0.26 l -0.02,1.91 v 2.41 0 q 0.46,-0.57 1.13,-0.94 v 0 0 q 0.67,-0.37 1.38,-0.37 v 0 0 q 0.96,0 1.56,0.61 v 0 0 q 0.6,0.61 0.6,1.61 z m 13.52,0.28 v 0 0 q 0,-1.7 -0.95,-2.73 v 0 0 Q 55.55,1.85 53.89,1.85 v 0 0 q -0.26,0 -0.43,0 v 0 0 q -0.18,0 -0.61,0.04 v 0 0 q -0.25,0 -0.43,0.04 v 0 0 q -0.19,0.04 -0.6,0.14 v 0 7.6 0 q 0.52,0.14 0.99,0.21 v 0 0 q 0.27,0.03 0.5,0.06 v 0 0 q 0.24,0.02 0.5,0.02 v 0 0 q 1.73,0 2.69,-1.15 v 0 0 q 0.47,-0.58 0.71,-1.38 v 0 0 Q 57.45,6.62 57.45,5.61 Z M 50.57,8.09 V 3.72 L 50.53,2.57 v 0 q 0,-0.29 -0.02,-0.51 v 0 0 Q 50.48,1.83 50.45,1.74 v 0 L 49.65,1.6 V 1.24 l 1.49,0.03 3.48,-0.07 v 0 q 1.98,0 3.04,1.18 v 0 0 q 1.07,1.17 1.07,3.23 v 0 0 q 0,2.08 -1.42,3.54 v 0 0 q -1.42,1.47 -3.41,1.47 v 0 l -2.76,-0.09 -1.49,0.04 v -0.35 l 0.8,-0.15 v 0 q 0.01,-0.04 0.05,-0.26 v 0 0 q 0.03,-0.22 0.03,-0.56 v 0 z m 15.37,0.43 0.37,0.29 v 0 q -0.38,0.75 -1.28,1.35 v 0 0 q -0.46,0.29 -0.92,0.43 v 0 0 q -0.45,0.15 -0.97,0.15 v 0 0 q -1.56,0 -2.44,-0.96 v 0 0 Q 59.82,8.83 59.82,7.11 v 0 0 q 0,-1.65 1.04,-2.83 v 0 0 Q 61.9,3.11 63.38,3.11 v 0 0 q 1.28,0 1.99,0.7 v 0 0 q 0.72,0.67 0.72,1.9 v 0 l 0.05,0.52 h -5.18 l -0.02,0.24 v 0.54 0 q 0,1.29 0.67,2.08 v 0 0 q 0.67,0.79 1.81,0.79 v 0 0 q 0.46,0 0.84,-0.11 v 0 0 q 0.38,-0.11 0.72,-0.34 v 0 0 Q 65.33,9.2 65.57,8.96 v 0 0 Q 65.81,8.72 65.94,8.52 Z M 61.03,5.64 v 0 L 64.3,5.58 64.96,5.53 v 0 q 0,-0.91 -0.41,-1.37 v 0 0 Q 64.15,3.69 63.36,3.69 v 0 0 q -1.05,0 -1.75,0.79 v 0 0 Q 61.24,4.9 61.03,5.64 Z m 11.54,2.7 v 0 0 q 0,1 -0.88,1.7 v 0 0 q -0.89,0.7 -2.17,0.7 v 0 0 q -0.75,0 -1.49,-0.24 v 0 0 q -0.34,-0.13 -0.66,-0.29 v 0 0 Q 67.06,10.04 66.74,9.83 v 0 l 0.53,-0.7 0.47,-0.71 0.29,0.16 -0.28,0.77 v 0 Q 68,9.57 68.56,9.84 v 0 0 q 0.53,0.23 1.26,0.23 v 0 0 q 0.72,0 1.25,-0.38 v 0 0 q 0.54,-0.38 0.54,-0.98 v 0 0 q 0,-0.57 -0.48,-0.89 v 0 0 Q 70.62,7.49 69.67,7.23 v 0 0 Q 68.52,6.9 67.84,6.51 v 0 0 Q 67.15,6.11 67.15,5.17 v 0 0 q 0,-0.95 0.85,-1.5 v 0 0 Q 68.4,3.4 68.92,3.25 v 0 0 q 0.51,-0.14 1.13,-0.14 v 0 0 q 0.59,0 1.25,0.12 v 0 0 q 0.34,0.07 0.54,0.12 v 0 0 q 0.2,0.06 0.38,0.13 v 0 l -0.54,1.43 -0.29,-0.1 0.03,-0.64 v 0 Q 71.1,4.02 70.66,3.9 v 0 0 Q 70.37,3.82 70.17,3.79 v 0 0 Q 69.98,3.77 69.75,3.77 v 0 0 q -0.77,0 -1.2,0.29 v 0 0 q -0.42,0.3 -0.42,0.77 v 0 0 q 0,0.48 0.44,0.82 v 0 0 q 0.46,0.31 1.66,0.62 v 0 0 q 1.2,0.32 1.76,0.81 v 0 0 q 0.58,0.45 0.58,1.26 z m 0.94,-7.36 v 0 0 q 0,-0.3 0.21,-0.5 v 0 0 q 0.2,-0.21 0.53,-0.24 v 0 0 q 0.3,0 0.52,0.22 v 0 0 q 0.21,0.21 0.21,0.51 v 0 0 q 0,0.3 -0.2,0.5 v 0 0 q -0.19,0.2 -0.53,0.23 v 0 0 q -0.28,0 -0.52,-0.21 v 0 0 Q 73.51,1.25 73.51,0.98 Z m 1.27,4.05 v 2.79 l 0.05,2.25 0.81,0.15 v 0.35 l -1.39,-0.04 -1.39,0.04 v -0.35 l 0.83,-0.15 0.04,-2.24 V 6.33 L 73.66,3.97 72.75,3.82 v -0.35 0 q 0.3,-0.04 0.57,-0.08 v 0 0 Q 73.6,3.35 73.65,3.34 v 0 l 0.89,-0.23 h 0.26 z m 4.25,-1.35 v 0 0 q -0.88,0 -1.42,0.6 v 0 0 q -0.54,0.59 -0.54,1.58 v 0 0 q 0,0.92 0.54,1.51 v 0 0 q 0.55,0.59 1.42,0.59 v 0 0 q 0.82,0 1.41,-0.6 v 0 0 Q 81,6.74 81,5.83 v 0 0 Q 81,5.31 80.88,4.95 v 0 0 Q 80.76,4.59 80.46,4.27 v 0 0 Q 79.95,3.68 79.03,3.68 Z m -3.1,2.13 v 0 0 q 0,-1.13 0.92,-1.91 v 0 0 q 0.92,-0.79 2.18,-0.79 v 0 0 q 0.6,0 1.05,0.14 v 0 l 1,0.17 1.66,0.05 0.01,0.21 V 3.8 l -0.2,0.08 v 0 q -0.18,0.09 -1.24,0.09 v 0 0 q 0.83,0.75 0.83,1.83 v 0 0 q 0,1.09 -0.92,1.91 v 0 0 q -0.93,0.82 -2.19,0.82 v 0 0 q -0.84,0 -1.34,-0.2 v 0 0 q -0.02,0.12 -0.15,0.46 v 0 0 Q 77.15,9.9 77.11,9.91 v 0 l 0.43,-0.13 v 0 q 0.24,-0.07 0.68,-0.12 v 0 0 Q 78.65,9.6 79.26,9.6 v 0 0 q 1.31,0 2.24,0.55 v 0 0 q 0.94,0.54 0.94,1.59 v 0 0 q 0,1.03 -1.11,1.75 v 0 0 q -1.12,0.71 -2.58,0.71 v 0 0 q -1.29,0 -2.14,-0.56 v 0 0 q -0.84,-0.56 -0.84,-1.31 v 0 0 q 0,-0.43 0.19,-0.72 v 0 0 q 0.2,-0.29 0.41,-0.48 v 0 l 0.39,0.26 v 0 q -0.1,0.12 -0.14,0.3 v 0 l -0.03,0.38 v 0 q 0,0.42 0.71,0.92 v 0 0 q 0.36,0.24 0.83,0.35 v 0 0 q 0.46,0.12 1.08,0.12 v 0 0 q 0.86,0 1.47,-0.36 v 0 0 q 0.62,-0.36 0.62,-1.16 v 0 0 q 0,-0.78 -1.04,-1.23 v 0 0 q -0.43,-0.19 -1.15,-0.19 v 0 0 q -0.85,0 -2.16,0.31 v 0 l -0.6,-0.65 0.3,-0.67 v 0 q 0.11,-0.24 0.24,-0.62 v 0 0 q 0.13,-0.38 0.25,-0.8 v 0 0 Q 76.9,7.97 76.76,7.83 v 0 0 Q 75.93,7.11 75.93,5.81 Z M 90.1,5.33 v 2.49 l 0.07,2.25 0.84,0.15 v 0.35 l -1.45,-0.04 -0.54,0.04 v -0.35 l 0.02,-0.15 v -4.03 0 q 0,-1.06 -0.38,-1.57 v 0 0 q -0.38,-0.5 -1.25,-0.5 v 0 0 q -0.92,0 -1.45,0.74 v 0 0 q -0.53,0.75 -0.53,1.97 v 0 1.14 l 0.05,2.25 0.81,0.15 v 0.35 l -1.38,-0.04 -1.4,0.04 v -0.35 l 0.82,-0.15 0.05,-2.24 V 6.29 L 84.31,3.93 83.4,3.78 v -0.35 0 q 0.28,0 0.42,-0.02 v 0 0 Q 83.96,3.4 84.31,3.32 v 0 0 q 0.45,-0.07 0.91,-0.21 v 0 h 0.29 l -0.12,1.48 v 0 Q 85.98,3.9 86.6,3.5 v 0 0 q 0.63,-0.39 1.34,-0.39 v 0 0 q 0.96,0 1.56,0.61 v 0 0 q 0.6,0.61 0.6,1.61 z m 13,2.57 v 0 0 q 0,1.23 -1.07,2.04 v 0 0 q -1.06,0.82 -2.72,0.82 v 0 0 q -0.98,0 -1.79,-0.2 v 0 0 Q 96.7,10.35 95.93,9.88 v 0 0 q 0.21,-0.4 0.41,-0.9 v 0 l 0.33,-0.91 0.35,0.1 -0.08,0.96 v 0 q 0.13,0.12 0.37,0.24 v 0 0 q 0.24,0.13 0.68,0.3 v 0 0 q 0.83,0.35 1.7,0.35 v 0 0 q 1.01,0 1.6,-0.51 v 0 0 q 0.59,-0.5 0.59,-1.42 v 0 0 q 0,-0.77 -0.7,-1.18 v 0 0 q -0.3,-0.18 -0.74,-0.36 v 0 0 Q 99.99,6.37 99.49,6.23 v 0 0 Q 97.88,5.81 97,5.25 v 0 0 Q 96.2,4.69 96.2,3.77 v 0 0 q 0,-1.22 1.02,-1.96 v 0 0 q 1.02,-0.75 2.6,-0.75 v 0 0 q 0.88,0 1.6,0.16 v 0 0 q 0.71,0.16 1.37,0.44 v 0 l -0.37,0.87 v 0 Q 102.24,3 102.15,3.38 v 0 l -0.4,-0.08 0.07,-0.8 v 0 q -0.07,-0.12 -0.78,-0.41 v 0 0 q -0.7,-0.3 -1.51,-0.3 v 0 0 q -0.98,0 -1.61,0.41 v 0 0 q -0.6,0.43 -0.6,1.15 v 0 0 q 0,0.77 0.81,1.15 v 0 0 q 0.8,0.39 1.91,0.68 v 0 0 q 1.68,0.46 2.37,1.13 v 0 0 q 0.69,0.68 0.69,1.59 z m 5.36,-4.13 -0.64,-0.15 V 3.28 l 1.12,0.03 1.11,-0.03 v 0.34 l -0.42,0.15 v 0 q -0.82,1.77 -1.43,3.49 v 0 l -1.2,3.48 v 0 q -0.6,1.63 -1.43,2.55 v 0 0 q -0.84,0.91 -2.11,0.91 v 0 0 q -0.13,0 -0.27,0 v 0 0 q -0.16,-0.03 -0.25,-0.05 v 0 0 q -0.08,-0.02 -0.16,-0.04 v 0 0 q -0.09,-0.03 -0.23,-0.1 v 0 l 0.43,-1.55 0.35,0.04 v 0.61 l 0.27,0.08 v 0 q 0.18,0.06 0.39,0.06 v 0 0 q 0.75,0 1.37,-0.73 v 0 0 q 0.62,-0.74 0.91,-1.62 v 0 l 0.14,-0.33 h -0.34 L 104.8,7.14 v 0 q -0.63,-1.77 -1.31,-3.36 v 0 L 102.86,3.62 V 3.28 l 1.3,0.03 1.3,-0.03 v 0.34 l -0.68,0.13 1.95,6.13 v 0 q 0.23,-0.71 0.49,-1.55 v 0 0 q 0.26,-0.84 0.45,-1.51 v 0 0 q 0.45,-1.53 0.79,-3.05 z m 7.51,4.57 v 0 0 q 0,1 -0.89,1.7 v 0 0 q -0.89,0.7 -2.16,0.7 v 0 0 q -0.75,0 -1.49,-0.24 v 0 0 q -0.35,-0.13 -0.66,-0.29 v 0 0 q -0.32,-0.17 -0.64,-0.38 v 0 l 0.54,-0.7 0.46,-0.71 0.3,0.16 -0.29,0.77 v 0 q 0.25,0.22 0.81,0.49 v 0 0 q 0.54,0.23 1.27,0.23 v 0 0 q 0.71,0 1.25,-0.38 v 0 0 Q 115,9.31 115,8.71 v 0 0 q 0,-0.57 -0.47,-0.89 v 0 0 q -0.52,-0.33 -1.47,-0.59 v 0 0 Q 111.92,6.9 111.23,6.51 v 0 0 q -0.68,-0.4 -0.68,-1.34 v 0 0 q 0,-0.95 0.84,-1.5 v 0 0 q 0.41,-0.27 0.92,-0.42 v 0 0 q 0.51,-0.14 1.13,-0.14 v 0 0 q 0.6,0 1.25,0.12 v 0 0 q 0.35,0.07 0.54,0.12 v 0 0 q 0.2,0.06 0.38,0.13 v 0 l -0.54,1.43 -0.28,-0.1 0.02,-0.64 v 0 Q 114.49,4.02 114.05,3.9 v 0 0 q -0.29,-0.08 -0.48,-0.11 v 0 0 q -0.2,-0.02 -0.43,-0.02 v 0 0 q -0.77,0 -1.19,0.29 v 0 0 q -0.43,0.3 -0.43,0.77 v 0 0 q 0,0.48 0.44,0.82 v 0 0 q 0.47,0.31 1.67,0.62 v 0 0 q 1.19,0.32 1.75,0.81 v 0 0 q 0.59,0.45 0.59,1.26 z m 2.07,-4.46 v 4.04 0 q 0,1.04 0.2,1.5 v 0 0 q 0.19,0.46 0.67,0.46 v 0 0 q 0.33,0 0.6,-0.17 v 0 0 q 0.26,-0.17 0.45,-0.34 v 0 l 0.25,0.25 v 0 q -0.12,0.2 -0.33,0.42 v 0 0 q -0.14,0.15 -0.31,0.31 v 0 0 q -0.42,0.39 -1.11,0.39 v 0 0 q -0.67,0 -1.07,-0.46 v 0 0 q -0.4,-0.45 -0.4,-1.26 v 0 -5.14 l -0.83,0.06 v -0.4 l 0.83,-0.24 -0.07,-1.7 1.18,-0.33 -0.06,2.04 1.79,-0.02 -0.26,0.62 z m 8.51,4.64 0.37,0.29 v 0 q -0.38,0.75 -1.28,1.35 v 0 0 q -0.46,0.29 -0.91,0.43 v 0 0 q -0.46,0.15 -0.98,0.15 v 0 0 q -1.56,0 -2.44,-0.96 v 0 0 q -0.87,-0.95 -0.87,-2.67 v 0 0 q 0,-1.65 1.03,-2.83 v 0 0 q 1.04,-1.17 2.52,-1.17 v 0 0 q 1.28,0 1.99,0.7 v 0 0 q 0.72,0.67 0.72,1.9 v 0 l 0.05,0.52 h -5.18 l -0.01,0.24 v 0.54 0 q 0,1.29 0.66,2.08 v 0 0 q 0.67,0.79 1.81,0.79 v 0 0 q 0.46,0 0.84,-0.11 v 0 0 q 0.38,-0.11 0.72,-0.34 v 0 0 q 0.35,-0.23 0.59,-0.47 v 0 0 q 0.24,-0.24 0.37,-0.44 z m -4.91,-2.88 v 0 l 3.28,-0.06 0.65,-0.05 v 0 q 0,-0.91 -0.4,-1.37 v 0 0 q -0.41,-0.47 -1.2,-0.47 v 0 0 q -1.04,0 -1.75,0.79 v 0 0 q -0.37,0.42 -0.58,1.16 z M 137.8,5.33 v 2.49 l 0.06,2.25 0.87,0.15 v 0.35 l -1.46,-0.04 -0.57,0.04 v -0.35 l 0.05,-0.15 v -3.96 0 q 0,-1.05 -0.34,-1.59 v 0 0 q -0.34,-0.55 -1.09,-0.55 v 0 0 q -0.88,0 -1.41,0.75 v 0 0 q -0.25,0.38 -0.39,0.86 v 0 0 q -0.13,0.48 -0.13,1.1 v 0 1.14 l 0.07,2.25 0.82,0.15 v 0.35 l -1.42,-0.04 -1.44,0.04 v -0.35 l 0.88,-0.15 0.04,-2.24 v -1.72 0 q 0,-1.02 -0.34,-1.58 v 0 0 q -0.34,-0.56 -1.11,-0.56 v 0 0 q -0.93,0 -1.43,0.83 v 0 0 q -0.23,0.41 -0.36,0.91 v 0 0 q -0.13,0.51 -0.13,1.08 v 0 1.03 l 0.07,2.25 0.82,0.15 v 0.35 l -1.42,-0.04 -1.38,0.04 v -0.35 l 0.82,-0.15 0.04,-2.24 V 6.29 l -0.06,-2.36 -0.91,-0.15 v -0.35 0 q 0.28,0 0.42,-0.02 v 0 0 q 0.14,-0.01 0.52,-0.09 v 0 0 q 0.39,-0.07 0.87,-0.21 v 0 h 0.3 l -0.12,1.52 v 0 q 0.53,-0.67 1.19,-1.1 v 0 0 q 0.67,-0.42 1.2,-0.42 v 0 0 q 0.87,0 1.29,0.4 v 0 0 q 0.43,0.4 0.64,1.24 v 0 0 q 0.34,-0.48 1.01,-1.06 v 0 0 q 0.67,-0.58 1.57,-0.58 v 0 0 q 0.88,0 1.42,0.61 v 0 0 q 0.54,0.62 0.54,1.61 z"
           id="path229"
           style="fill:url(#linearGradient244)" />
      </g>
    </g>
  </g>
</svg>
